Coordinates
version=1
nRows=13
nColumns=36
inDegrees=yes

Units are S.I. units (second, meters, Newtons, ...)
If the header above contains a line with 'inDegrees', this indicates whether rotational values are in degrees (yes) or radians (no).

endheader
time	pelvis_tilt	pelvis_list	pelvis_rotation	pelvis_tx	pelvis_ty	pelvis_tz	hip_flexion_r	hip_adduction_r	hip_rotation_r	knee_angle_r	knee_angle_r_beta	ankle_angle_r	subtalar_angle_r	mtp_angle_r	hip_flexion_l	hip_adduction_l	hip_rotation_l	knee_angle_l	knee_angle_l_beta	ankle_angle_l	subtalar_angle_l	mtp_angle_l	lumbar_extension	lumbar_bending	lumbar_rotation	arm_flex_r	arm_add_r	arm_rot_r	elbow_flex_r	pro_sup_r	arm_flex_l	arm_add_l	arm_rot_l	elbow_flex_l	pro_sup_l
      1.02000000	     -1.49028967	      2.18474832	      1.60280467	      1.11944231	      1.02652303	     -0.21125410	     25.18433678	     -2.69174981	     -7.60369956	      7.87935025	      0.13752060	     -2.85836919	     -9.65970063	     -7.11528860	    -12.62543296	      5.48304852	     -0.66928479	      3.14499866	      0.05489058	     10.16463956	      2.74463209	     -7.11528860	    -10.98179766	      0.16307234	     -6.49761942	     -7.58068499	     -5.66511991	    -17.95523337	     34.11817294	    108.35340005	     11.08942788	    -11.61633078	      2.45440951	     63.58973041	    109.25996034
      1.03000000	     -1.76250019	      2.55006415	      1.74026000	      1.13311716	      1.02375953	     -0.21055301	     24.47095888	     -2.89830292	     -7.24828833	      3.25169712	      0.05675282	     -2.21703480	     -6.92257830	     -7.12220294	    -13.37571795	      5.75767436	     -0.94729131	      2.79523990	      0.04878614	     10.23445314	      3.48787196	     -7.12220294	    -10.64574701	     -0.09050864	     -6.78369854	     -7.77581284	     -5.57778594	    -18.13986138	     34.10680695	    108.26049888	     10.95217689	    -11.90184396	      2.63796803	     64.79524366	    109.25608827
      1.04000000	     -2.16048778	      3.09353448	      1.86171477	      1.14657816	      1.02054223	     -0.21011462	     24.67626287	     -3.47838108	     -7.84861649	      0.74833203	      0.01306086	      0.20919581	     -2.27761096	     -7.13500817	    -13.84959315	      6.23764185	     -1.22637179	      2.72153726	      0.04749979	     10.36697964	      4.41345205	     -7.13500817	    -10.19159788	     -0.51912648	     -7.09543706	     -7.92881022	     -5.48436051	    -18.37956855	     34.16149274	    108.20000047	     10.74698456	    -12.09752970	      2.66944898	     66.04611732	    109.23578930
      1.05000000	     -2.75734579	      3.72091549	      1.92253739	      1.15967039	      1.01689803	     -0.20972075	     25.85545322	     -4.23501253	     -8.85061242	      0.31611924	      0.00551732	      3.03587001	      2.33313332	     -7.14648862	    -13.98102152	      6.85167725	     -1.21808157	      2.86165450	      0.04994529	     10.38809259	      4.55654821	     -7.14648862	     -9.54606298	     -1.04293048	     -7.22554121	     -8.11468082	     -5.40934366	    -18.59805478	     34.16050224	    108.16104016	     10.63658007	    -12.27482886	      2.86754006	     67.03923013	    109.25908415
      1.06000000	     -3.20034953	      4.17754964	      1.93241096	      1.17288021	      1.01353019	     -0.20891129	     26.72409159	     -4.72978716	     -8.40580029	      0.23255888	      0.00405892	      4.43806969	      4.21495790	     -7.15099706	    -14.24259739	      7.24621545	     -1.11158207	      3.06837386	      0.05355323	     10.42503853	      4.62553478	     -7.15099706	     -9.08525162	     -1.38985253	     -7.24407783	     -8.27900822	     -5.35882147	    -18.74847727	     34.23180996	    108.12295127	     10.53764084	    -12.48753044	      3.18336541	     68.02343408	    109.33523413
      1.07000000	     -3.27423469	      4.19286873	      2.14845950	      1.18659385	      1.01097887	     -0.20823252	     26.86018285	     -4.84183416	     -8.08233032	      0.23498413	      0.00410125	      5.42744936	      5.86868448	     -7.16158061	    -14.77526066	      7.06345908	     -0.94291541	      3.53666145	      0.06172639	     10.49648249	      4.68731207	     -7.16158061	     -9.03622118	     -1.18345897	     -7.46204387	     -8.34060574	     -5.34117728	    -19.01350634	     34.22284750	    108.05463916	     10.40821041	    -12.49044369	      3.18384385	     68.79418660	    109.33489328
      1.08000000	     -3.20396617	      3.95010007	      2.35542232	      1.20057916	      1.00877749	     -0.20725595	     26.58202086	     -4.62357797	     -6.78657700	      0.30453668	      0.00531517	      5.23456608	      5.61547226	     -7.16383033	    -15.37910828	      6.55992992	     -0.66905600	      4.17177461	      0.07281120	     10.56932647	      4.64890835	     -7.16383033	     -9.10492063	     -0.68274480	     -7.54600745	     -8.40678580	     -5.41242313	    -19.08162051	     34.16704120	    108.01427722	     10.36306862	    -12.46067637	      3.37817902	     69.28021412	    109.36632050
      1.09000000	     -2.95475312	      3.48656521	      2.41606354	      1.21482188	      1.00683903	     -0.20558484	     25.95860424	     -3.99055318	     -4.06545982	      0.47062796	      0.00821401	      2.98968743	      1.13225114	     -7.17592480	    -16.05065368	      5.77713396	     -0.90211026	      5.02827567	      0.08775997	     10.95499276	      4.97614781	     -7.17592480	     -9.38933466	      0.01589791	     -7.55123388	     -8.38559975	     -5.44933734	    -19.21478727	     34.13590746	    107.94200066	     10.10434742	    -12.41736177	      3.33120330	     70.03122558	    109.41149095
      1.10000000	     -2.62363797	      2.84353517	      2.51255851	      1.22928704	      1.00517248	     -0.20402777	     25.38335698	     -3.19734432	     -2.31680405	      1.17439910	      0.02049713	      0.81330848	     -2.28348131	     -7.18909141	    -16.69445349	      4.78737726	     -1.10966182	      6.10677061	      0.10658325	     11.28038764	      5.27550911	     -7.18909141	     -9.72215432	      0.94961772	     -7.51300584	     -8.35308344	     -5.58409527	    -19.20830314	     34.03653836	    107.86003212	      9.89219263	    -12.27834317	      3.36098166	     70.44424404	    109.46419939
      1.11000000	     -2.30611856	      2.31061620	      2.50855847	      1.24375943	      1.00353504	     -0.20266016	     25.43467226	     -2.54906033	     -2.28516780	      3.20038086	      0.05585718	      0.10679472	     -3.22256219	     -7.19201273	    -17.29167021	      4.00178187	     -1.05210300	      7.25708067	      0.12665995	     11.29025715	      4.98073110	     -7.19201273	    -10.05014191	      1.77867120	     -7.31508769	     -8.32267467	     -5.76446897	    -19.22757328	     33.94087530	    107.72008454	      9.69463456	    -12.04364453	      3.45598357	     70.71079193	    109.37582560
      1.12000000	     -2.15504536	      1.68807542	      2.44533653	      1.25828765	      1.00182237	     -0.20095402	     25.62496997	     -1.71725586	     -1.75349331	      5.13512144	      0.08962478	     -2.29424084	     -6.46731585	     -7.20137427	    -17.48859195	      3.12441646	     -1.32916933	      8.81923606	      0.15392471	     11.45415291	      4.79811508	     -7.20137427	    -10.17489275	      2.68952678	     -7.17158473	     -8.23792014	     -5.93613397	    -19.16366660	     33.84058241	    107.74249837	      9.23303771	    -11.79475035	      3.29372869	     70.93197344	    109.60109108
      1.13000000	     -1.86414477	      1.02264690	      2.31943490	      1.27306627	      1.00061347	     -0.19925081	     25.69125405	     -0.86911646	     -1.98669937	      7.11629351	      0.12420275	     -3.86627225	     -8.10271711	     -7.21082283	    -17.82148030	      2.23880064	     -1.62498920	     10.39664878	      0.18145575	     11.27195222	      4.48914754	     -7.21082283	    -10.45678818	      3.65241377	     -6.90450738	     -8.13626181	     -6.15661614	    -19.06335493	     33.67158306	    107.75628941	      8.80914635	    -11.47413570	      3.15833767	     70.95145650	    109.83059469
      1.14000000	     -1.45720648	      0.36155471	      2.18964415	      1.28806332	      0.99994548	     -0.19767589	     25.60160932	     -0.08627188	     -2.67716706	      9.07076189	      0.15831466	     -4.65113800	     -8.71998422	     -7.21311663	    -18.22273322	      1.39563231	     -1.90803114	     12.04559096	      0.21023522	     10.72963338	      3.91766556	     -7.21311663	    -10.85596880	      4.62381304	     -6.56279136	     -8.03193157	     -6.38000445	    -19.05886672	     33.51752812	    107.75154500	      8.38337684	    -11.07945632	      3.10240737	     70.82711212	    109.87908911
